<?xml version="1.0" standalone="no"?>
<!DOCTYPE svg PUBLIC "-//W3C//DTD SVG 20010904//EN"
 "http://www.w3.org/TR/2001/REC-SVG-20010904/DTD/svg10.dtd">
<svg version="1.0" xmlns="http://www.w3.org/2000/svg"
 width="600.000000pt" height="600.000000pt" viewBox="0 0 600.000000 600.000000"
 preserveAspectRatio="xMidYMid meet">
<metadata>
Created by potrace 1.11, written by Peter Selinger 2001-2013
</metadata>
<g transform="translate(0.000000,600.000000) scale(0.100000,-0.100000)"
fill="#000000" stroke="none">
<path d="M3007 3574 c-1 -1 -68 -4 -148 -8 -81 -3 -153 -8 -160 -10 -8 -3 -33
-7 -56 -10 -112 -14 -264 -64 -358 -119 -183 -106 -357 -327 -430 -545 -117
-348 -58 -749 153 -1057 71 -103 184 -225 259 -282 21 -15 40 -31 43 -34 25
-30 210 -126 295 -152 54 -17 187 -45 220 -45 94 -3 214 -2 230 2 11 2 43 7
70 11 186 27 412 145 565 295 122 120 198 259 236 431 10 45 12 224 3 279 -16
103 -20 121 -45 186 -64 170 -168 322 -319 467 -63 59 -194 161 -260 201 l-60
36 65 0 c36 1 246 1 468 1 l402 0 0 175 c0 132 -3 174 -12 175 -25 1 -1160 4
-1161 3z m139 -420 c189 -215 298 -419 350 -658 9 -40 17 -136 19 -221 4 -162
-12 -275 -55 -387 -12 -32 -20 -59 -18 -60 2 -2 -7 -17 -20 -35 -12 -17 -22
-35 -22 -40 0 -14 -66 -106 -106 -148 -93 -96 -205 -146 -330 -147 -285 -2
-512 196 -685 597 -15 36 -39 130 -54 211 -14 76 -15 360 -2 409 3 11 11 43
17 70 41 167 151 299 322 383 125 62 239 87 407 91 l117 2 60 -67z"/>
</g>
</svg>
